<?xml version="1.0" encoding="UTF-8"?>
<svg id="Layer_2" xmlns="http://www.w3.org/2000/svg" viewBox="0 0 129.15 25.63">
  <g id="Layer_1-2" data-name="Layer_1">
    <g>
      <g>
        <path d="M20.74,0h-7.78c-.46,0-.91.18-1.25.52L.41,11.81c-.54.54-.54,1.45,0,2l11.3,11.3c.32.32.79.52,1.25.52h7.78c.26,0,.4-.32.22-.52l-12.07-12.07c-.12-.12-.12-.32,0-.42L20.96.52c.18-.18.06-.52-.22-.52Z"/>
        <path d="M21.48,16.69v8.2c0,.26.32.4.52.22l8.2-8.2c.2-.2.06-.52-.22-.52h-8.2c-.18,0-.3.12-.3.3Z"/>
        <path d="M30.21,8.75L22.01.52c-.2-.2-.52-.06-.52.22v8.2c0,.16.14.3.3.3h8.2c.28,0,.4-.32.22-.5Z"/>
      </g>
      <g>
        <path d="M50.67,19.34c-7.33,0-8.44-4.08-8.44-6.34v-.47c0-2.3.99-6.25,8.44-6.25h.69c7.33,0,8.44,3.5,8.44,4.99v.19h-4.19c-.11-.34-.6-2.11-4.62-2.11-3.78,0-4.64,1.7-4.64,3.27v.19c0,1.5,1.01,3.46,4.68,3.46,4.08,0,4.49-1.96,4.6-2.24h4.21v.19c0,1.59-1.25,5.14-8.47,5.14h-.71v-.02Z"/>
        <path d="M66.06,9.47h-5.44v-2.99h14.87v2.99h-5.46v9.65h-4v-9.65h.02Z"/>
        <path d="M77.1,6.49h3.95v4.6h8.49v-4.6h3.95v12.64h-3.95v-4.99h-8.49v4.99h-3.95V6.49Z"/>
        <path d="M120.79,19.32c-6.77,0-7.89-4.32-7.89-6.68v-6.13h3.98v5.89c0,1.63.73,3.65,4.17,3.65s4.15-2.02,4.15-3.65v-5.89h3.95v6.13c0,2.39-1.29,6.68-7.76,6.68h-.6Z"/>
        <path d="M108.93,12.74c.84-.28,2.34-.95,2.34-2.77v-.19c0-1.83-1.27-3.27-5.48-3.27h-10.19v12.64h3.95v-4.49h5.16c1.96,0,2.62.69,2.62,2.24v2.26h3.98v-3.48c.02-1.65-1.1-2.54-2.39-2.92ZM107.14,10.61c0,.69-.45,1.25-1.59,1.25h-6v-2.47h6c1.16-.02,1.59.54,1.59,1.23Z"/>
      </g>
    </g>
  </g>
</svg>