<?xml version="1.0" encoding="UTF-8"?>
<svg id="Layer_1" xmlns="http://www.w3.org/2000/svg" viewBox="0 0 1955 1115">
  <defs>
    <style>
      .cls-1 {
        fill: #fee866;
      }

      .cls-1, .cls-2 {
        stroke: #fee866;
        stroke-width: 9px;
      }

      .cls-1, .cls-2, .cls-3 {
        stroke-miterlimit: 10;
      }

      .cls-3 {
        fill: none;
        stroke: #000;
        stroke-width: 35px;
      }
    </style>
  </defs>
  <rect class="cls-1" x="17.5" y="17.5" width="1920" height="1080"/>
  <path class="cls-1" d="M1296.88,17.5v28.05c0-9.97-8.08-18.05-18.05-18.05h-283.28c-9.97,0-18.05,8.08-18.05,18.05v2.48c0-11.34-9.19-20.53-20.53-20.53h-173.03c-11.34,0-20.53,9.19-20.53,20.53v-30.53h533.47Z"/>
  <rect class="cls-2" x="694.71" y="684.37" width="137.4" height="344.28" rx="19.68" ry="19.68"/>
  <rect class="cls-2" x="448.34" y="684.37" width="246.37" height="142.73" rx="19.84" ry="19.84"/>
  <path class="cls-2" d="M1310.31,1020.65v76.85h-478.2v-6.78c0-11.08,8.99-20.07,20.07-20.07h242.55c11.08,0,20.07-8.99,20.07-20.08v-29.92c0-11.03,8.91-19.99,19.93-20.07h155.51c11.08,0,20.07,8.99,20.07,20.07Z"/>
  <path class="cls-2" d="M1083.44,768.9l-73.08,75.53c-11.95,12.35-32.86,3.89-32.86-13.29v-75.53c0-10.56,8.56-19.12,19.12-19.12h73.08c16.88,0,25.48,20.28,13.74,32.41Z"/>
  <path class="cls-2" d="M930.18,878.62c17.63,0,26.61,21.18,14.35,33.85l-85.26,88.11h0c-9.88,10.21-27.16,3.22-27.16-10.99v-90.13c0-11.51,9.33-20.84,20.84-20.84h77.23Z"/>
  <path class="cls-2" d="M200.08,546v163.35c0,18.76-23.84,26.76-35.16,11.81l-123.67-163.35c-9.76-12.89-.56-31.37,15.6-31.37h123.67c10.8,0,19.56,8.76,19.56,19.56Z"/>
  <path class="cls-2" d="M1241.13,298.51v217.44c0,11.05-8.96,20.01-20.01,20.01h-86.31c-11.05,0-20.01-8.96-20.01-20.01v-92.68c0-11.05-8.96-20.01-20.01-20.01h-97.28c-11.05,0-20.01-8.96-20.01-20.01v-84.74c0-11.05,8.96-20.01,20.01-20.01h223.61c11.05,0,20.01,8.96,20.01,20.01Z"/>
  <path class="cls-2" d="M1439.37,898.55v82.1c0,11.01-8.92,19.93-19.93,19.93h-284.71c-11.01,0-19.93-8.92-19.93-19.93v-294.52c0-11.01,8.92-19.93,19.93-19.93h72.29c11.01,0,19.93,8.92,19.93,19.93v172.56c0,11.01,8.92,19.93,19.93,19.93h172.56c11.01,0,19.93,8.92,19.93,19.93Z"/>
  <path class="cls-2" d="M1716.08,555.89v191.79c0,11.01-8.92,19.93-19.93,19.93h-236.85c-11.01,0-19.93-8.92-19.93-19.93v-76.58c0-3.22.78-6.39,2.27-9.24l60.28-115.21c3.44-6.57,10.24-10.69,17.66-10.69h176.58c11.01,0,19.93,8.92,19.93,19.93Z"/>
  <path class="cls-2" d="M587.32,475.04v31.27c0,11.12-9.01,20.13-20.13,20.13h-237.69c-11.12,0-20.13-9.01-20.13-20.13V221.24c0-11.12,9.01-20.13,20.13-20.13h54.04c6.44,0,12.48,3.08,16.27,8.28l17.12,23.65,133.95,185.12,32.63,45.1c2.48,3.43,3.81,7.55,3.81,11.78Z"/>
  <rect class="cls-2" x="587.32" y="278.5" width="390.18" height="124.76" rx="20.43" ry="20.43"/>
  <rect class="cls-2" x="832.11" y="403.26" width="145.39" height="475.36" rx="19.37" ry="19.37"/>
  <rect class="cls-2" x="977.5" y="403.26" width="137.3" height="333.23" rx="20.01" ry="20.01"/>
  <rect class="cls-2" x="448.34" y="827.1" width="246.37" height="61.82" rx="19.84" ry="19.84"/>
  <rect class="cls-2" x="309.37" y="526.44" width="138.97" height="279.53"/>
  <path class="cls-2" d="M832.11,491.57v172.37c0,11.28-9.15,20.43-20.43,20.43h-84.25c-15.11,0-24.99-15.83-18.35-29.4l84.25-172.37c9.51-19.46,38.78-12.69,38.78,8.97Z"/>
  <path class="cls-2" d="M817.74,432.66l-117.43,240.25c-3.43,7.01-10.55,11.46-18.35,11.46h-213.19c-11.28,0-20.43-9.15-20.43-20.43v-49.25h0v-67.82c0-11.28,9.15-20.43,20.43-20.43h98.11c11.28,0,20.43-9.15,20.43-20.43v-82.32c0-11.28,9.15-20.43,20.43-20.43h191.64c15.11,0,24.99,15.83,18.35,29.4Z"/>
  <rect class="cls-2" x="448.34" y="526.44" width="0" height="88.25"/>
  <path class="cls-2" d="M587.32,221.24v185.12c0,19.52-25,27.62-36.44,11.8l-133.95-185.12c-9.64-13.31-.13-31.93,16.3-31.93h133.96c11.12,0,20.13,9.01,20.13,20.13Z"/>
  <rect class="cls-2" x="17.5" y="324.3" width="291.87" height="202.14" rx="20.46" ry="20.46"/>
  <rect class="cls-2" x="17.5" y="767.61" width="182.58" height="166.8" rx="20.44" ry="20.44"/>
  <rect class="cls-2" x="200.08" y="614.69" width="248.26" height="319.72" rx="20.43" ry="20.43"/>
  <path class="cls-2" d="M694.71,909.45v98.66c0,11.34-9.19,20.53-20.53,20.53h-111.22c-11.34,0-20.53-9.19-20.53-20.53v-53.17c0-11.34-9.19-20.53-20.53-20.53h-53.01c-11.34,0-20.53-9.19-20.53-20.53v-4.42c0-11.34,9.19-20.53,20.53-20.53h205.3c11.34,0,20.53,9.19,20.53,20.53Z"/>
  <path class="cls-2" d="M159.99,767.61H37.43c-11.01,0-19.93-8.92-19.93-19.93v-161.88c0-19.11,24.29-27.27,35.83-12.03l122.55,161.88c9.94,13.13.57,31.97-15.89,31.97Z"/>
  <path class="cls-2" d="M832.11,1035.04v19.8c0,8.73,7.08,15.8,15.8,15.8h251.08c8.73,0,15.8-7.08,15.8-15.8v-279.3c0-14.2-17.28-21.2-27.16-10.99l-110.14,113.83-.22.23-118.01,121.96-22.71,23.48c-2.85,2.95-4.45,6.89-4.45,10.99Z"/>
  <path class="cls-2" d="M832.11,1049.17v48.33h-289.69v-48.33c0-11.33,9.19-20.52,20.52-20.52h248.65c11.33,0,20.52,9.19,20.52,20.52Z"/>
  <path class="cls-2" d="M542.42,1049.59v36.97c0,4.01-1.13,7.76-3.08,10.94h-209.13c-4.35-7.14-4.5-16.78,1.72-24.28l79.54-94.84c12.59-14.81,36.87-5.92,36.87,13.58v15.75c0,11.57,9.37,20.94,20.94,20.94h52.2c11.57,0,20.94,9.37,20.94,20.94Z"/>
  <rect class="cls-2" x="448.34" y="934.41" width="94.08" height="94.24" rx="19.6" ry="19.6"/>
  <path class="cls-2" d="M425.32,961.86l-13.85,16.52-79.56,94.87-20.34,24.25h-31.49c-.91-2.05-1.41-4.32-1.41-6.71v-139.67c0-9.23,7.48-16.71,16.71-16.71h117.13c14.2,0,21.93,16.58,12.81,27.45Z"/>
  <path class="cls-2" d="M278.67,954.44v143.06H17.5v-145.41c0-9.76,7.91-17.68,17.68-17.68h223.46c11.06,0,20.03,8.97,20.03,20.03Z"/>
  <rect class="cls-2" x="200.08" y="526.44" width="248.27" height="88.25" rx="20.43" ry="20.43"/>
  <path class="cls-2" d="M977.5,38.85v218.3c0,11.76-9.14,21.3-20.43,21.35h-173.13c-11.34,0-20.53-9.56-20.53-21.35V38.85c0-11.79,9.19-21.35,20.53-21.35h173.03c11.34,0,20.53,9.56,20.53,21.35Z"/>
  <path class="cls-2" d="M662.77,38.85v218.3c0,11.79-9.19,21.35-20.53,21.35h-34.49c-11.29-.05-20.43-9.59-20.43-21.35V38.85c0-11.79,9.19-21.35,20.53-21.35h34.39c11.34,0,20.53,9.56,20.53,21.35Z"/>
  <path class="cls-2" d="M763.41,17.5v240.47c0,11.34-9.19,20.53-20.53,20.53h-59.58c-11.34,0-20.53-9.19-20.53-20.53V17.5h100.64Z"/>
  <path class="cls-2" d="M587.32,38.8v139.85c0,11.76-9.01,21.3-20.13,21.3h-237.69c-11.12,0-20.13-9.53-20.13-21.3V38.8c0-11.76,9.01-21.3,20.13-21.3h237.69c11.12,0,20.13,9.53,20.13,21.3Z"/>
  <path class="cls-2" d="M1492.25,565.13l-15.29,29.23c-9.66,18.46-37.59,11.59-37.59-9.24v-29.23c0-11.01,8.92-19.93,19.93-19.93h15.29c14.98,0,24.6,15.9,17.66,29.17Z"/>
  <rect class="cls-2" x="1114.8" y="535.96" width="324.57" height="130.24" rx="19.93" ry="19.93"/>
  <rect class="cls-2" x="1226.95" y="666.2" width="212.42" height="212.42" rx="19.93" ry="19.93"/>
  <path class="cls-2" d="M1610.76,381.7v134.12c0,11.12-9.01,20.13-20.13,20.13h-191.01c-11.12,0-20.13-9.01-20.13-20.13V165.8c0-11.12,9.01-20.13,20.13-20.13h83.06c7.63,0,14.6,4.31,18.01,11.13l107.95,215.9c1.4,2.8,2.13,5.88,2.13,9Z"/>
  <rect class="cls-2" x="1439.37" y="767.61" width="276.71" height="232.97" rx="20.08" ry="20.08"/>
  <rect class="cls-2" x="1241.13" y="278.5" width="138.35" height="257.46" rx="20.01" ry="20.01"/>
  <path class="cls-2" d="M1610.76,165.8v125.85c0,21.25-28.64,28.01-38.14,9l-62.93-125.85c-6.69-13.39,3.04-29.14,18.01-29.14h62.93c11.12,0,20.13,9.01,20.13,20.13Z"/>
  <path class="cls-2" d="M1937.5,647.03v241.89h-201.34c-11.09,0-20.08-8.99-20.08-20.08v-201.74c0-11.08,8.99-20.07,20.08-20.07h201.34Z"/>
  <path class="cls-2" d="M1937.5,888.92v208.58h-221.42v-188.51c0-11.08,8.99-20.07,20.08-20.07h201.34Z"/>
  <path class="cls-2" d="M1716.08,1020.65v66.77c0,3.67-.99,7.12-2.72,10.08h-400.33c-1.73-2.96-2.72-6.41-2.72-10.08v-66.77c0-11.08,8.99-20.07,20.08-20.07h365.62c11.08,0,20.07,8.99,20.07,20.07Z"/>
  <path class="cls-2" d="M1296.88,37.08v89.02c0,10.81-8.08,19.58-18.05,19.58h-283.28c-9.97,0-18.05-8.76-18.05-19.58V37.08c0-10.81,8.08-19.58,18.05-19.58h283.28c9.97,0,18.05,8.76,18.05,19.58Z"/>
  <path class="cls-2" d="M1092.21,278.5h-94.46c-11.18,0-20.25-9.07-20.25-20.25v-71.76c0-16.74,19.17-26.25,32.5-16.12l94.46,71.76c15.44,11.73,7.15,36.37-12.25,36.37Z"/>
  <path class="cls-2" d="M1152.33,165.92v71.76c0,16.74-19.17,26.25-32.5,16.12l-94.46-71.76c-15.44-11.73-7.15-36.37,12.25-36.37h94.46c11.18,0,20.25,9.07,20.25,20.25Z"/>
  <path class="cls-2" d="M1937.5,39.53v150.53c0,12.17-9.36,22.03-20.9,22.03h-284.94c-11.54,0-20.9-9.87-20.9-22.03V39.53c0-12.17,9.36-22.03,20.9-22.03h284.94c11.54,0,20.9,9.87,20.9,22.03Z"/>
  <path class="cls-2" d="M1937.5,232.47v104.1c0,11.26-9.12,20.38-20.38,20.38h-75.35c-11.26,0-20.38,9.12-20.38,20.38v27.66c0,11.26-9.12,20.38-20.38,20.38h-64.55c-11.26,0-20.38-9.12-20.38-20.38v-172.52c0-11.26,9.12-20.38,20.38-20.38h180.66c11.26,0,20.38,9.12,20.38,20.38Z"/>
  <rect class="cls-2" x="1610.76" y="212.09" width="105.32" height="323.87" rx="19.93" ry="19.93"/>
  <rect class="cls-2" x="1821.39" y="356.95" width="116.11" height="289.25" rx="20.38" ry="20.38"/>
  <path class="cls-2" d="M1610.76,17.5v108.04c0,11.12-9.01,20.13-20.13,20.13h-273.62c-11.12,0-20.13-9.01-20.13-20.13V17.5h313.88Z"/>
  <rect class="cls-2" x="1152.33" y="145.67" width="227.15" height="132.83" rx="20.25" ry="20.25"/>
  <rect class="cls-2" x="1716.08" y="425.37" width="105.31" height="220.83" rx="20.38" ry="20.38"/>
  <rect class="cls-2" x="17.5" y="17.5" width="113.18" height="306.8" rx="20.42" ry="20.42"/>
  <rect class="cls-2" x="130.68" y="17.5" width="178.69" height="306.8" rx="20.42" ry="20.42"/>
  <rect class="cls-3" x="17.5" y="17.5" width="1920" height="1080"/>
</svg>